<svg id="Logo" xmlns="http://www.w3.org/2000/svg" width="176" height="48.219" viewBox="0 0 176 48.219">
  <defs>
    <style>
      .cls-1 {
        font-size: 30px;
        fill: #1a2027;
        font-family: "DM Serif Text";
      }

      .cls-2 {
        fill: #0bc0eb;
      }

      .cls-2, .cls-3 {
        fill-rule: evenodd;
      }

      .cls-3 {
        fill: #6dd9f3;
      }
    </style>
  </defs>
  <text id="realty" class="cls-1" transform="translate(51.779 36.813) scale(1.589 1.598)">realty</text>
  <path class="cls-2" d="M40.314,10L24.267,0.676a5.891,5.891,0,0,0-5.48,0L2.74,10A5.936,5.936,0,0,0,0,14.782V33.437a5.934,5.934,0,0,0,2.74,4.778l1.24,0.721c14.043-7.049,29.954-6.765,39.073-5.775V14.782A5.937,5.937,0,0,0,40.314,10Zm-7.4,19.415H10.141m25.745,0h0m-28.718,0h-3.7M5.7,29.357H2.534V14.782a3.445,3.445,0,0,1,1.473-2.569L20.054,2.886a3.414,3.414,0,0,1,2.947,0l16.047,9.327a3.444,3.444,0,0,1,1.473,2.569V29.357H37.351"/>
  <path id="Shape_1_copy_2" data-name="Shape 1 copy 2" class="cls-2" d="M32.914,29.419H10.141V17.507a1.428,1.428,0,0,1,.521-0.908l10.344-6.013a1.412,1.412,0,0,1,1.042,0L32.393,16.6a1.431,1.431,0,0,1,.52.908V29.419Zm2.972,0h0V17.507a4.19,4.19,0,0,0-2.007-3.638L23.722,8.046a4.647,4.647,0,0,0-4.39,0L9.176,13.87a4.187,4.187,0,0,0-2.008,3.638V29.419"/>
  <path id="Shape_1_copy" data-name="Shape 1 copy" class="cls-3" d="M18.787,47.542a5.888,5.888,0,0,0,5.48,0l16.047-9.327a5.991,5.991,0,0,0,2.631-3.792c-13.858.794-22.957,5.186-28.963,10.327Z"/>
</svg>
